HIERARCHY
ROOT Bip001_Pelvis
{
  OFFSET -1.80259 95.4564 -9.99843
  CHANNELS 6 Xposition Yposition Zposition Zrotation Xrotation Yrotation
  JOINT Bip001_Spine
  {
    OFFSET 1.44608e-005 10.4157 -0.0118244
    CHANNELS 3 Zrotation Xrotation Yrotation
    JOINT Bip001_L_Thigh
    {
      OFFSET 11.2582 -10.4157 0.0118432
      CHANNELS 3 Zrotation Xrotation Yrotation
      JOINT Bip001_L_Calf
      {
        OFFSET -0.720717 -44.8687 0.366937
        CHANNELS 3 Zrotation Xrotation Yrotation
        JOINT Bip001_L_Foot
        {
          OFFSET -0.664439 -41.3745 -3.62995
          CHANNELS 3 Zrotation Xrotation Yrotation
          JOINT Bip001_L_Toe0
          {
            OFFSET 0.0541047 -10.4146 13.4033
            CHANNELS 3 Zrotation Xrotation Yrotation
            End Site
            {
              OFFSET -1.04503e-005 0 7.70137
            }
          }
        }
      }
    }
    JOINT Bip001_R_Thigh
    {
      OFFSET -11.2582 -10.4156 0.0118122
      CHANNELS 3 Zrotation Xrotation Yrotation
      JOINT Bip001_R_Calf
      {
        OFFSET 0.72059 -44.8687 0.36676
        CHANNELS 3 Zrotation Xrotation Yrotation
        JOINT Bip001_R_Foot
        {
          OFFSET 0.664321 -41.3745 -3.62979
          CHANNELS 3 Zrotation Xrotation Yrotation
          JOINT Bip001_R_Toe0
          {
            OFFSET -0.05417 -10.4146 13.4033
            CHANNELS 3 Zrotation Xrotation Yrotation
            End Site
            {
              OFFSET -1.04873e-005 0 7.70137
            }
          }
        }
      }
    }
    JOINT Bip001_Spine1
    {
      OFFSET 1.90638e-005 14.8539 1.10727
      CHANNELS 3 Zrotation Xrotation Yrotation
      JOINT Bip001_Spine2
      {
        OFFSET 2.28934e-005 14.7848 -1.7233
        CHANNELS 3 Zrotation Xrotation Yrotation
        JOINT Bip001_Neck
        {
          OFFSET 2.24514e-005 15.6905 -0.498826
          CHANNELS 3 Zrotation Xrotation Yrotation
          JOINT Bip001_L_Clavicle
          {
            OFFSET 6.17691 -0.000591152 0.00852867
            CHANNELS 3 Zrotation Xrotation Yrotation
            JOINT Bip001_L_UpperArm
            {
              OFFSET 11.773 -0.0611878 0.00197697
              CHANNELS 3 Zrotation Xrotation Yrotation
              JOINT Bip001_L_Forearm
              {
                OFFSET 26.4514 0.0817568 -2.19579
                CHANNELS 3 Zrotation Xrotation Yrotation
                JOINT Bip001_L_Hand
                {
                  OFFSET 32.8677 0.156744 1.67112
                  CHANNELS 3 Zrotation Xrotation Yrotation
                  JOINT Bip001_L_Finger0
                  {
                    OFFSET 6.16267 -2.25226 6.01674
                    CHANNELS 3 Zrotation Xrotation Yrotation
                    End Site
                    {
                      OFFSET 4.30498 -1.46663 0.618148
                    }
                  }
                  JOINT Bip001_L_Finger1
                  {
                    OFFSET 11.2957 -0.718374 -0.201963
                    CHANNELS 3 Zrotation Xrotation Yrotation
                    End Site
                    {
                      OFFSET 6.31952 -0.405163 -0.0802303
                    }
                  }
                }
              }
            }
          }
          JOINT Bip001_R_Clavicle
          {
            OFFSET -6.17691 -0.000574027 0.00851165
            CHANNELS 3 Zrotation Xrotation Yrotation
            JOINT Bip001_R_UpperArm
            {
              OFFSET -11.773 -0.0611516 0.00194365
              CHANNELS 3 Zrotation Xrotation Yrotation
              JOINT Bip001_R_Forearm
              {
                OFFSET -26.4514 0.0822336 -2.19736
                CHANNELS 3 Zrotation Xrotation Yrotation
                JOINT Bip001_R_Hand
                {
                  OFFSET -32.8677 0.156816 1.67144
                  CHANNELS 3 Zrotation Xrotation Yrotation
                  JOINT Bip001_R_Finger0
                  {
                    OFFSET -6.16269 -2.25224 6.01673
                    CHANNELS 3 Zrotation Xrotation Yrotation
                    End Site
                    {
                      OFFSET -4.30499 -1.46661 0.618137
                    }
                  }
                  JOINT Bip001_R_Finger1
                  {
                    OFFSET -11.2957 -0.718343 -0.201995
                    CHANNELS 3 Zrotation Xrotation Yrotation
                    End Site
                    {
                      OFFSET -6.31952 -0.405145 -0.0802479
                    }
                  }
                }
              }
            }
          }
          JOINT Bip001_Head
          {
            OFFSET 1.11782e-005 11.4912 2.09908
            CHANNELS 3 Zrotation Xrotation Yrotation
            End Site
            {
              OFFSET 2.95144e-005 21.2823 -2.83069e-005
            }
          }
        }
      }
    }
  }
}
MOTION
Frames:	9
Frame Time:	0.0333333
-1.80259 95.4564 -9.99843 -0.0649499 -6.68086 2.02014 -0.481771 3.05886 0.403931 0.295871 -3.1131 -8.00121 -0.00776025 11.6533 -0.179864 0.752618 -5.0178 4.85426 -1.14692e-010 1.33391e-008 -1.325e-010 0.318386 -4.76171 3.68562 0.0090771 10.5673 0.163428 -1.46139 -2.22138 -7.36174 2.13647e-007 -2.45656e-008 -1.0497e-009 -0.100342 6.12837 0.667064 -0.0933202 6.12809 0.652185 2.87373 6.60739 -2.08316 -31.6866 -2.92264 -9.03822 -39.5498 54.3474 -11.8659 -2.12297 0.463433 -21.5465 6.40205 7.74966 1.33594 4.41391e-032 3.18055e-015 -7.95139e-016 -1.59028e-015 9.54167e-015 -0 22.7028 -5.34221 0.912488 45.3971 50.8002 14.0918 1.51513 0.23888 15.0198 -3.86798 -9.6232 -5.35716 -0 -6.36111e-015 -0 -8.82782e-032 -6.36111e-015 -7.95139e-016 -1.0256 -12.7826 -0.964714 
-1.80488 95.4564 -9.99703 -0.0649499 -6.68086 2.02014 -0.481771 3.05886 0.403931 0.295871 -3.1131 -8.00121 -0.00776025 11.6533 -0.179864 0.752618 -5.0178 4.85426 -1.14692e-010 1.33391e-008 -1.325e-010 0.318386 -4.76171 3.68562 0.0090771 10.5673 0.163428 -1.46139 -2.22138 -7.36174 2.13647e-007 -2.45656e-008 -1.0497e-009 -0.100342 6.12837 0.667064 -0.0935007 6.12809 0.653876 2.87417 6.60738 -2.08697 -31.687 -2.92486 -9.03824 -39.5479 54.3527 -11.8675 -2.12297 0.463433 -21.5465 6.40654 7.74966 1.33594 1.59028e-015 0 -0 4.77083e-015 3.18056e-015 -1.59028e-015 22.7028 -5.34221 0.912488 45.409 50.7809 14.0804 1.51505 0.238859 15.0386 -3.87425 -9.58901 -5.35662 7.95139e-016 0 -7.95139e-016 7.95139e-016 0 -0 -0.9739 -12.7633 -0.994078 
-1.80728 95.4564 -9.99558 -0.0649039 -6.68215 2.02014 -0.481771 3.05886 0.403931 0.296095 -3.11151 -8.0012 -0.00775683 11.6544 -0.179865 0.752618 -5.0178 4.85426 -1.14692e-010 1.33391e-008 -1.325e-010 0.321645 -4.76171 3.68562 0.0090771 10.5673 0.163428 -1.46139 -2.22138 -7.36174 2.13647e-007 -2.45656e-008 -1.0497e-009 -0.100342 6.12837 0.667064 -0.0942344 6.12808 0.66075 2.87507 6.60735 -2.09481 -31.6874 -2.92952 -9.03154 -39.5514 54.3634 -11.8706 -2.12297 0.463433 -21.5465 6.42536 7.74966 1.33594 -1.59028e-015 0 -0 -1.59028e-015 0 7.95139e-016 22.7028 -5.34069 0.912486 45.4339 50.7629 14.0525 1.51498 0.238838 15.0569 -3.88292 -9.55242 -5.35604 -0 0 7.95139e-016 7.95139e-016 0 -0 -0.923146 -12.7445 -1.02229 
-1.80971 95.4564 -9.99413 -0.0688796 -6.68682 2.02016 -0.481771 3.05886 0.403931 0.296676 -3.10738 -8.00117 -0.00774483 11.6581 -0.179867 0.753137 -5.0239 4.8543 -1.14693e-010 1.33391e-008 -1.325e-010 0.327909 -4.75968 3.68561 0.00908183 10.5656 0.163427 -1.46139 -2.22138 -7.36174 2.13647e-007 -2.45656e-008 -1.0497e-009 -0.100884 6.12837 0.672134 -0.094976 6.12808 0.667696 2.87596 6.60731 -2.10255 -31.6875 -2.93267 -9.02482 -39.5549 54.3739 -11.8737 -2.12297 0.463433 -21.5465 6.4446 7.74966 1.33594 3.18055e-015 0 1.59028e-015 1.59028e-015 0 7.95139e-016 22.7026 -5.33759 0.911092 45.4566 50.7447 14.0244 1.5149 0.238818 15.0751 -3.89151 -9.51542 -5.35546 7.95139e-016 6.36111e-015 -0 7.95139e-016 6.36111e-015 -7.95139e-016 -0.878356 -12.7292 -1.04282 
-1.81206 95.4566 -9.99271 -0.0728068 -6.69127 2.02018 -0.481771 3.05886 0.403931 0.297232 -3.10343 -8.00114 -0.00773295 11.6618 -0.17987 0.753639 -5.02979 4.85435 -1.14692e-010 1.33391e-008 -1.325e-010 0.333353 -4.7526 3.68557 0.00909493 10.5611 0.163425 -1.46139 -2.22138 -7.36174 2.13647e-007 -2.45656e-008 -1.0497e-009 -0.10159 6.12836 0.678755 -0.0956996 6.12807 0.674474 2.87686 6.60728 -2.11034 -31.6875 -2.93462 -9.01822 -39.5599 54.384 -11.8753 -2.12297 0.463433 -21.5465 6.46273 7.74966 1.33594 -8.82781e-032 -3.18055e-015 -1.59028e-015 -4.41391e-032 -3.18056e-015 -7.95139e-016 22.7022 -5.33437 0.906762 45.4782 50.7266 13.9965 1.51482 0.238797 15.0937 -3.90063 -9.47993 -5.3549 -7.95139e-016 0 7.95139e-016 -8.82782e-032 6.36111e-015 7.95139e-016 -0.839069 -12.7174 -1.0561 
-1.81429 95.4566 -9.99135 -0.0765051 -6.69558 2.0202 -0.481771 3.05886 0.403931 0.301629 -3.10027 -8.00111 -0.00771804 11.6665 -0.179873 0.75415 -5.03577 4.85439 -1.14692e-010 1.33391e-008 -1.325e-010 0.338287 -4.74583 3.68554 0.00910688 10.557 0.163423 -1.46153 -2.2225 -7.36174 2.13647e-007 -2.45656e-008 -1.0497e-009 -0.102243 6.12835 0.684872 -0.0963627 6.12806 0.680686 2.87774 6.60725 -2.118 -31.6865 -2.93608 -9.01035 -39.5679 54.3905 -11.8734 -2.12297 0.463433 -21.5465 6.47831 7.74966 1.33594 -1.32417e-031 -3.18055e-015 -2.38542e-015 -1.76556e-031 -3.18056e-015 -3.18055e-015 22.7016 -5.33019 0.901913 45.4992 50.709 13.9693 1.51474 0.238775 15.1129 -3.91091 -9.44792 -5.3544 -4.41391e-032 -3.18055e-015 -7.95139e-016 7.95139e-016 -9.54167e-015 -7.95139e-016 -0.802899 -12.7064 -1.06531 
-1.81626 95.4567 -9.99007 -0.0800358 -6.69924 2.02021 -0.481771 3.05886 0.403931 0.305804 -3.09755 -8.00168 -0.00770203 11.6715 -0.179876 0.754659 -5.04175 4.85444 -1.14692e-010 1.33391e-008 -1.325e-010 0.343037 -4.74028 3.68551 0.00911638 10.5537 0.163421 -1.46185 -2.22492 -7.36176 2.13647e-007 -2.45656e-008 -1.0497e-009 -0.102817 6.12834 0.690249 -0.0969463 6.12805 0.686154 2.87857 6.60722 -2.12521 -31.6811 -2.93713 -9.00136 -39.5779 54.3933 -11.8699 -2.12297 0.463433 -21.5465 6.49052 7.74966 1.33594 -0 0 1.59028e-015 -0 0 7.95139e-016 22.701 -5.32278 0.896317 45.52 50.6921 13.9432 1.51466 0.238752 15.1331 -3.92324 -9.4213 -5.35399 -0 0 7.95139e-016 -7.95139e-016 -3.18056e-015 7.95139e-016 -0.769933 -12.6952 -1.07155 
-1.8179 95.4567 -9.98892 -0.0833432 -6.70141 2.02022 -0.481771 3.05886 0.403931 0.309282 -3.0953 -8.00562 -0.00769021 11.6752 -0.179878 0.755115 -5.04709 4.85448 -1.14692e-010 1.33391e-008 -1.325e-010 0.347128 -4.73596 3.68548 0.00912471 10.5508 0.163419 -1.46217 -2.22745 -7.36177 2.13647e-007 -2.45656e-008 -1.0497e-009 -0.103311 6.12834 0.694876 -0.0974639 6.12805 0.691002 2.87929 6.60625 -2.13179 -31.6761 -2.9378 -8.99275 -39.5888 54.3942 -11.8651 -2.12296 0.463428 -21.5481 6.49601 7.74966 1.33594 -1.59028e-015 3.18055e-015 2.38542e-015 -1.59028e-015 0 1.59028e-015 22.7005 -5.31901 0.892087 45.5368 50.6835 13.9208 1.51435 0.239533 15.1548 -3.93794 -9.40203 -5.35369 -7.95139e-016 -9.54166e-015 -0 -7.95139e-016 -1.27222e-014 -0 -0.739259 -12.684 -1.07551 
-1.81924 95.4567 -9.98796 -0.0864428 -6.70317 2.02023 -0.481771 3.05886 0.403931 0.312662 -3.0934 -8.00962 -0.00768097 11.678 -0.17988 0.755476 -5.05133 4.85451 -1.14692e-010 1.33391e-008 -1.325e-010 0.351219 -4.73153 3.68752 0.00913217 10.5483 0.163418 -1.46282 -2.23002 -7.36979 2.13647e-007 -2.45656e-008 -1.0497e-009 -0.103701 6.12833 0.698529 -0.0978637 6.12804 0.694747 2.8798 6.60236 -2.13748 -31.6727 -2.93817 -8.98556 -39.6015 54.3928 -11.8581 -2.1229 0.463406 -21.5552 6.49804 7.75151 1.33594 0 0 -0 -4.41391e-032 3.18056e-015 7.95139e-016 22.7002 -5.31639 0.889196 45.5485 50.6816 13.9016 1.51402 0.24036 15.1773 -3.95358 -9.38928 -5.34854 2.38542e-015 -1.27222e-014 -1.59028e-015 1.59028e-015 -1.59028e-014 -2.38542e-015 -0.707732 -12.6717 -1.07959 
